<svg width="63" height="56" viewBox="0 0 63 56" fill="none" xmlns="http://www.w3.org/2000/svg">
<path d="M15.4793 16.1577L0 32.3027V32.9063C0 33.3944 0.0615234 33.5485 0.319922 33.7669C0.516797 33.9339 0.824414 34.0366 1.09512 34.0366C1.51348 34.0366 2.16563 33.3816 16.5129 18.4054L31.5 2.76139L46.4871 18.4054C60.8344 33.3816 61.4865 34.0366 61.9049 34.0366C62.1756 34.0366 62.4832 33.9339 62.6801 33.7669C62.9385 33.5485 63 33.3944 63 32.9063V32.3155L57.7705 26.844L52.541 21.3724V14.9889C52.541 8.42561 52.5287 8.24579 52.0611 7.87332C51.9135 7.75772 50.9045 7.71919 48.259 7.70634H44.6537L44.3584 8.02744C43.9523 8.43845 43.9523 9.10634 44.3461 9.59442L44.6414 9.95405L47.4838 9.99258L50.3262 10.0311V14.5522V19.0733L41.1838 9.5302L32.0414 -8.01086e-05H31.5H30.9463L15.4793 16.1577Z" fill="#414141"/>
<path d="M7.93652 31.9046C7.72734 31.9945 7.49355 32.2257 7.40742 32.4183C7.29668 32.6881 7.25977 35.3982 7.25977 43.9908V55.2037L7.57969 55.6018L7.89961 56H13.609H19.3307L19.626 55.6789L19.9336 55.3706V46.945V38.5321H24.1172H28.3008V46.9321V55.3193L28.6207 55.6661L28.9529 56H41.9713H54.9897L55.3342 55.6917L55.6787 55.3835V43.9394V32.4954L55.3588 32.1615C54.9281 31.7248 54.2514 31.6991 53.8207 32.1229L53.5254 32.4055V43.0532V53.6881H42.0205H30.5156V45.4807C30.5156 40.0991 30.4664 37.145 30.3926 36.9138C30.1342 36.2073 30.2818 36.233 24.1049 36.2202H18.3709L18.0756 36.5541L17.7803 36.8881L17.7434 45.2881L17.7064 53.6881H13.5967H9.47461V43.1431C9.47461 35.8477 9.4377 32.5211 9.33926 32.3413C9.26543 32.2 9.01934 32.0073 8.79785 31.9046C8.30566 31.6991 8.3918 31.6991 7.93652 31.9046Z" fill="#414141"/>
<path d="M35.093 36.3099C35.0068 36.3484 34.8592 36.5411 34.7607 36.7337C34.6131 37.042 34.5762 37.9025 34.5762 41.7943V46.4823L34.8715 46.842L35.1668 47.2016L39.6457 47.2401C42.0943 47.2658 44.2354 47.2401 44.383 47.2016C44.5307 47.1631 44.7768 47.009 44.9121 46.8548C45.1459 46.5851 45.1582 46.4181 45.1582 41.7172V36.8493L44.8506 36.5411L44.5553 36.22L39.9041 36.2328C37.3447 36.2328 35.1791 36.2713 35.093 36.3099ZM42.9434 41.7429V44.9539H39.8672H36.791V41.7429V38.5319H39.8672H42.9434V41.7429Z" fill="#414141"/>
</svg>
